<?xml version="1.0" encoding="UTF-8" standalone="no"?>
<svg
   viewBox="0 0 400 250"
   version="1.1"
   id="svg4"
   sodipodi:docname="earth.svg"
   width="400"
   height="250"
   inkscape:version="1.2.2 (732a01da63, 2022-12-09)"
   xmlns:inkscape="http://www.inkscape.org/namespaces/inkscape"
   xmlns:sodipodi="http://sodipodi.sourceforge.net/DTD/sodipodi-0.dtd"
   xmlns="http://www.w3.org/2000/svg"
   xmlns:svg="http://www.w3.org/2000/svg">
  <defs
     id="defs8" />
  <sodipodi:namedview
     id="namedview6"
     pagecolor="#ffffff"
     bordercolor="#666666"
     borderopacity="1.0"
     inkscape:showpageshadow="2"
     inkscape:pageopacity="0.0"
     inkscape:pagecheckerboard="0"
     inkscape:deskcolor="#d1d1d1"
     showgrid="false"
     inkscape:zoom="0.4609375"
     inkscape:cx="241.89831"
     inkscape:cy="256"
     inkscape:window-width="1920"
     inkscape:window-height="974"
     inkscape:window-x="-11"
     inkscape:window-y="-11"
     inkscape:window-maximized="1"
     inkscape:current-layer="svg4" />
  <rect
     style="fill:#728798;fill-opacity:1;stroke:none;stroke-width:1.31528"
     id="rect1623"
     width="400"
     height="250"
     x="0"
     y="0"
     ry="32.542374" />
  <!--! Font Awesome Pro 6.2.1 by @fontawesome - https://fontawesome.com License - https://fontawesome.com/license (Commercial License) Copyright 2022 Fonticons, Inc. -->
  <path
     d="m 232.8125,125 c 0,7.58789 -0.41016,14.90234 -1.12793,21.875 h -63.36914 c -0.75195,-6.97266 -1.12793,-14.28711 -1.12793,-21.875 0,-7.58789 0.41016,-14.90234 1.12793,-21.875 h 63.36914 c 0.75195,6.97266 1.12793,14.28711 1.12793,21.875 z m 9.84375,-21.875 h 42.0752 c 1.81152,7.00684 2.76855,14.32129 2.76855,21.875 0,7.55371 -0.95703,14.86816 -2.76855,21.875 h -42.0752 C 243.37402,139.83398 243.75,132.51953 243.75,125 c 0,-7.51953 -0.37598,-14.83398 -1.09375,-21.875 z m 38.48633,-10.9375 h -39.8877 C 237.83691,70.34668 231.06934,52.060547 222.35352,40.371094 249.11621,47.446289 270.88867,66.860352 281.1084,92.1875 Z m -50.96192,0 h -60.36132 c 2.08496,-12.441406 5.29785,-23.447266 9.22851,-32.368164 3.58887,-8.066406 7.58789,-13.911133 11.4502,-17.602539 C 194.32617,38.59375 197.50488,37.5 200,37.5 c 2.49512,0 5.67383,1.09375 9.50195,4.716797 3.86231,3.691406 7.86133,9.536133 11.4502,17.602539 3.96484,8.886719 7.17773,19.892578 9.22851,32.368164 z m -71.43554,0 h -39.8877 C 129.11133,66.860352 150.84961,47.446289 177.64648,40.371094 168.93066,52.060547 162.16309,70.34668 158.74512,92.1875 Z m -43.47657,10.9375 h 42.0752 C 156.62598,110.16602 156.25,117.48047 156.25,125 c 0,7.51953 0.37598,14.83398 1.09375,21.875 h -42.0752 C 113.45703,139.86816 112.5,132.55371 112.5,125 c 0,-7.55371 0.95703,-14.86816 2.76855,-21.875 z m 63.7793,87.02148 c -3.96484,-8.88671 -7.14355,-19.89257 -9.22851,-32.33398 h 60.36132 c -2.08496,12.44141 -5.29785,23.44727 -9.22851,32.33398 -3.58887,8.06641 -7.58789,13.91114 -11.4502,17.60254 C 205.67383,211.40625 202.49512,212.5 200,212.5 c -2.49512,0 -5.67383,-1.09375 -9.50195,-4.7168 -3.86231,-3.6914 -7.86133,-9.53613 -11.4502,-17.60254 z M 158.74512,157.8125 c 3.41797,21.84082 10.18554,40.12695 18.90136,51.81641 -26.79687,-7.0752 -48.53515,-26.48926 -58.78906,-51.81641 z m 122.39746,0 c -10.25391,25.32715 -31.99219,44.74121 -58.75488,51.81641 8.71582,-11.68946 15.44921,-29.97559 18.90136,-51.81641 z"
     id="path2"
     style="stroke-width:0.341797" />
</svg>
