<?xml version="1.0" encoding="UTF-8" standalone="no"?>
<svg
   viewBox="0 0 250 250"
   version="1.1"
   id="svg4"
   sodipodi:docname="earth.svg"
   width="250"
   height="250"
   inkscape:version="1.2.2 (732a01da63, 2022-12-09)"
   xmlns:inkscape="http://www.inkscape.org/namespaces/inkscape"
   xmlns:sodipodi="http://sodipodi.sourceforge.net/DTD/sodipodi-0.dtd"
   xmlns="http://www.w3.org/2000/svg"
   xmlns:svg="http://www.w3.org/2000/svg">
  <defs
     id="defs8" />
  <sodipodi:namedview
     id="namedview6"
     pagecolor="#ffffff"
     bordercolor="#666666"
     borderopacity="1.0"
     inkscape:showpageshadow="2"
     inkscape:pageopacity="0.0"
     inkscape:pagecheckerboard="0"
     inkscape:deskcolor="#d1d1d1"
     showgrid="false"
     inkscape:zoom="0.4609375"
     inkscape:cx="241.89831"
     inkscape:cy="256"
     inkscape:window-width="1920"
     inkscape:window-height="974"
     inkscape:window-x="-11"
     inkscape:window-y="-11"
     inkscape:window-maximized="1"
     inkscape:current-layer="svg4" />
  <rect
     style="fill:#728798;fill-opacity:1;stroke:none;stroke-width:0.935838"
     id="rect1623"
     width="225"
     height="225"
     x="12.5"
     y="12.5"
     ry="112.5" />
  <!--! Font Awesome Pro 6.2.1 by @fontawesome - https://fontawesome.com License - https://fontawesome.com/license (Commercial License) Copyright 2022 Fonticons, Inc. -->
  <path
     d="m 154.53125,125 c 0,6.8291 -0.36914,13.41211 -1.01514,19.6875 H 96.48389 C 95.80713,138.41211 95.46875,131.8291 95.46875,125 c 0,-6.8291 0.36914,-13.41211 1.01514,-19.6875 h 57.03222 c 0.67676,6.27539 1.01514,12.8584 1.01514,19.6875 z m 8.85937,-19.6875 h 37.86768 c 1.63037,6.30616 2.4917,12.88916 2.4917,19.6875 0,6.79834 -0.86133,13.38134 -2.4917,19.6875 h -37.86768 c 0.646,-6.33692 0.98438,-12.91992 0.98438,-19.6875 0,-6.76758 -0.33838,-13.35058 -0.98438,-19.6875 z m 34.6377,-9.84375 h -35.89893 c -3.07617,-19.656738 -9.16698,-36.114258 -17.01122,-46.634765 24.08642,6.367675 43.68163,23.840332 52.87939,46.634765 z m -45.86573,0 H 97.83741 c 1.87646,-11.197265 4.76806,-21.102539 8.30565,-29.131348 3.22999,-7.259765 6.82911,-12.520019 10.30519,-15.842285 C 119.89355,47.234375 122.75439,46.25 125,46.25 c 2.24561,0 5.10645,0.984375 8.55175,4.245117 3.47608,3.322266 7.0752,8.58252 10.30518,15.842285 3.56836,7.998047 6.45996,17.903321 8.30566,29.131348 z m -64.29198,0 H 51.97168 C 61.2002,72.674317 80.76465,55.20166 104.88183,48.833985 97.03759,59.354492 90.94678,75.812012 87.87061,95.46875 Z M 48.7417,105.3125 H 86.60937 C 85.96338,111.64942 85.625,118.23242 85.625,125 c 0,6.76758 0.33838,13.35058 0.98437,19.6875 H 48.7417 C 47.11133,138.38134 46.25,131.79834 46.25,125 c 0,-6.79834 0.86133,-13.38134 2.4917,-19.6875 z m 57.40136,78.31933 c -3.56835,-7.99804 -6.42919,-17.90331 -8.30565,-29.10058 h 54.32518 c -1.87646,11.19727 -4.76806,21.10254 -8.30565,29.10058 -3.22999,7.25977 -6.82911,12.52003 -10.30518,15.84229 -3.44531,3.2915 -6.30615,4.27588 -8.55176,4.27588 -2.24561,0 -5.10645,-0.98438 -8.55175,-4.24512 -3.47608,-3.32226 -7.0752,-8.58252 -10.30519,-15.84229 z M 87.87061,154.53125 c 3.07617,19.65674 9.16698,36.11425 17.01122,46.63477 C 80.76465,194.79834 61.2002,177.32568 51.97168,154.53125 Z m 110.15771,0 c -9.22852,22.79443 -28.79297,40.26709 -52.87939,46.63477 7.84424,-10.52052 13.90429,-26.97803 17.01122,-46.63477 z"
     id="path2"
     style="stroke-width:0.307617" />
</svg>
