<?xml version="1.0" encoding="UTF-8" standalone="no"?>
<svg
   viewBox="0 0 500 250"
   version="1.1"
   id="svg4"
   sodipodi:docname="earth.svg"
   width="500"
   height="250"
   inkscape:version="1.2.2 (732a01da63, 2022-12-09)"
   xmlns:inkscape="http://www.inkscape.org/namespaces/inkscape"
   xmlns:sodipodi="http://sodipodi.sourceforge.net/DTD/sodipodi-0.dtd"
   xmlns="http://www.w3.org/2000/svg"
   xmlns:svg="http://www.w3.org/2000/svg">
  <defs
     id="defs8" />
  <sodipodi:namedview
     id="namedview6"
     pagecolor="#ffffff"
     bordercolor="#666666"
     borderopacity="1.0"
     inkscape:showpageshadow="2"
     inkscape:pageopacity="0.0"
     inkscape:pagecheckerboard="0"
     inkscape:deskcolor="#d1d1d1"
     showgrid="false"
     inkscape:zoom="0.4609375"
     inkscape:cx="244.0678"
     inkscape:cy="256"
     inkscape:window-width="1920"
     inkscape:window-height="974"
     inkscape:window-x="-11"
     inkscape:window-y="-11"
     inkscape:window-maximized="1"
     inkscape:current-layer="svg4" />
  <rect
     style="fill:#728798;fill-opacity:1;stroke:none;stroke-width:0.935838"
     id="rect1623"
     width="225"
     height="225"
     x="137.5"
     y="12.5"
     ry="112.5" />
  <!--! Font Awesome Pro 6.2.1 by @fontawesome - https://fontawesome.com License - https://fontawesome.com/license (Commercial License) Copyright 2022 Fonticons, Inc. -->
  <path
     d="m 275.3125,125 c 0,5.85351 -0.31641,11.49609 -0.87012,16.875 h -48.88476 c -0.58008,-5.37891 -0.87012,-11.02149 -0.87012,-16.875 0,-5.85351 0.31641,-11.49609 0.87012,-16.875 h 48.88476 c 0.58008,5.37891 0.87012,11.02149 0.87012,16.875 z m 7.59375,-16.875 h 32.45801 c 1.39746,5.40528 2.13574,11.04785 2.13574,16.875 0,5.82715 -0.73828,11.46972 -2.13574,16.875 H 282.90625 C 283.45996,136.44335 283.75,130.80078 283.75,125 c 0,-5.80078 -0.29004,-11.44335 -0.84375,-16.875 z m 29.68945,-8.4375 h -30.77051 c -2.63672,-16.848633 -7.85741,-30.955078 -14.58104,-39.972656 20.6455,5.458007 37.44139,20.434571 45.32519,39.972656 z m -39.31348,0 h -46.56444 c 1.60839,-9.597656 4.08691,-18.087891 7.11913,-24.969727 2.76856,-6.222656 5.85352,-10.731445 8.83302,-13.579101 C 245.62304,58.34375 248.07519,57.5 250,57.5 c 1.92481,0 4.37696,0.84375 7.33007,3.638672 2.9795,2.847656 6.06446,7.356445 8.83301,13.579101 3.0586,6.855469 5.53711,15.345704 7.11914,24.969727 z m -55.10741,0 H 187.4043 c 7.91016,-19.538085 24.67969,-34.514649 45.35155,-39.972656 -6.72363,9.017578 -11.94432,23.124023 -14.58104,39.972656 z m -33.53907,8.4375 h 32.45801 C 216.54004,113.55665 216.25,119.19922 216.25,125 c 0,5.80078 0.29004,11.44335 0.84375,16.875 H 184.63574 C 183.23828,136.46972 182.5,130.82715 182.5,125 c 0,-5.82715 0.73828,-11.46972 2.13574,-16.875 z m 49.20117,67.13085 c -3.05859,-6.85546 -5.51074,-15.34569 -7.11913,-24.94335 h 46.56444 c -1.60839,9.59766 -4.08691,18.08789 -7.11913,24.94335 -2.76856,6.22266 -5.85352,10.73146 -8.83301,13.57911 C 254.37696,191.65625 251.92481,192.5 250,192.5 c -1.92481,0 -4.37696,-0.84375 -7.33007,-3.63867 -2.9795,-2.84766 -6.06446,-7.35645 -8.83302,-13.57911 z m -15.6621,-24.94335 c 2.63672,16.84863 7.85741,30.95507 14.58104,39.97266 -20.67186,-5.45801 -37.44139,-20.43458 -45.35155,-39.97266 z m 94.42089,0 c -7.91016,19.53808 -24.67969,34.51465 -45.32519,39.97266 6.72364,-9.01759 11.91796,-23.12403 14.58105,-39.97266 z"
     id="path2"
     style="stroke-width:0.263672" />
</svg>
