<?xml version="1.0" encoding="UTF-8" standalone="no"?>
<svg
   viewBox="0 0 400 250"
   version="1.1"
   id="svg4"
   sodipodi:docname="flask.svg"
   width="400"
   height="250"
   inkscape:version="1.2.2 (732a01da63, 2022-12-09)"
   xmlns:inkscape="http://www.inkscape.org/namespaces/inkscape"
   xmlns:sodipodi="http://sodipodi.sourceforge.net/DTD/sodipodi-0.dtd"
   xmlns="http://www.w3.org/2000/svg"
   xmlns:svg="http://www.w3.org/2000/svg">
  <defs
     id="defs8" />
  <sodipodi:namedview
     id="namedview6"
     pagecolor="#ffffff"
     bordercolor="#666666"
     borderopacity="1.0"
     inkscape:showpageshadow="2"
     inkscape:pageopacity="0.0"
     inkscape:pagecheckerboard="0"
     inkscape:deskcolor="#d1d1d1"
     showgrid="false"
     inkscape:zoom="0.4609375"
     inkscape:cx="241.89831"
     inkscape:cy="256"
     inkscape:window-width="1920"
     inkscape:window-height="974"
     inkscape:window-x="-11"
     inkscape:window-y="-11"
     inkscape:window-maximized="1"
     inkscape:current-layer="svg4" />
  <rect
     style="fill:#728798;fill-opacity:1;stroke:none;stroke-width:1.31528"
     id="rect1623"
     width="400"
     height="250"
     x="0"
     y="0"
     ry="32.542374" />
  <!--! Font Awesome Pro 6.2.1 by @fontawesome - https://fontawesome.com License - https://fontawesome.com/license (Commercial License) Copyright 2022 Fonticons, Inc. -->
  <path
     d="m 225,37.499998 h -50 -12.5 c -6.91406,0 -12.5,4.887695 -12.5,10.9375 0,6.049805 5.58594,10.9375 12.5,10.9375 v 45.390622 c 0,4.03321 -1.28906,8.03223 -3.71094,11.4502 l -42.26562,60.12207 c -2.61719,3.75977 -4.02344,8.03223 -4.02344,12.44141 0,13.09082 12.14844,23.7207 27.10938,23.7207 h 120.78124 c 14.96094,0 27.10938,-10.62988 27.10938,-23.7207 0,-4.375 -1.40625,-8.68164 -4.02344,-12.44141 L 241.21094,116.25 C 238.78906,112.79785 237.5,108.83301 237.5,104.7998 V 59.374998 c 6.91406,0 12.5,-4.887695 12.5,-10.9375 0,-6.049805 -5.58594,-10.9375 -12.5,-10.9375 z M 187.5,104.76562 V 59.374998 h 25 v 45.390622 c 0,8.10059 2.57813,16.03028 7.42188,22.93457 l 13.47656,19.17481 h -66.79688 l 13.47657,-19.17481 C 184.92188,120.7959 187.5,112.86621 187.5,104.76562 Z"
     id="path2357"
     style="stroke-width:0.365396" />
</svg>
