<?xml version="1.0" encoding="UTF-8" standalone="no"?>
<svg
   viewBox="0 0 250 250"
   version="1.1"
   id="svg4"
   sodipodi:docname="flask.svg"
   width="250"
   height="250"
   inkscape:version="1.2.2 (732a01da63, 2022-12-09)"
   xmlns:inkscape="http://www.inkscape.org/namespaces/inkscape"
   xmlns:sodipodi="http://sodipodi.sourceforge.net/DTD/sodipodi-0.dtd"
   xmlns="http://www.w3.org/2000/svg"
   xmlns:svg="http://www.w3.org/2000/svg">
  <defs
     id="defs8" />
  <sodipodi:namedview
     id="namedview6"
     pagecolor="#ffffff"
     bordercolor="#666666"
     borderopacity="1.0"
     inkscape:showpageshadow="2"
     inkscape:pageopacity="0.0"
     inkscape:pagecheckerboard="0"
     inkscape:deskcolor="#d1d1d1"
     showgrid="false"
     inkscape:zoom="0.4609375"
     inkscape:cx="241.89831"
     inkscape:cy="256"
     inkscape:window-width="1920"
     inkscape:window-height="974"
     inkscape:window-x="-11"
     inkscape:window-y="-11"
     inkscape:window-maximized="1"
     inkscape:current-layer="svg4" />
  <rect
     style="fill:#728798;fill-opacity:1;stroke:none;stroke-width:0.935838"
     id="rect1623"
     width="225"
     height="225"
     x="12.5"
     y="12.5"
     ry="112.5" />
  <!--! Font Awesome Pro 6.2.1 by @fontawesome - https://fontawesome.com License - https://fontawesome.com/license (Commercial License) Copyright 2022 Fonticons, Inc. -->
  <path
     d="m 144.28571,57.5 h -38.57142 -9.642864 c -5.333697,0 -9.642852,3.770508 -9.642852,8.4375 0,4.666991 4.309155,8.4375 9.642852,8.4375 v 35.01563 c 0,3.11132 -0.994419,6.19628 -2.86272,8.833 L 60.603794,164.60351 C 58.584824,167.5039 57.5,170.7998 57.5,174.20117 57.5,184.2998 66.871655,192.5 78.412949,192.5 h 93.174101 c 11.54129,0 20.91295,-8.2002 20.91295,-18.29883 0,-3.375 -1.08482,-6.69727 -3.10379,-9.59766 L 156.79129,118.25 c -1.8683,-2.66309 -2.86272,-5.72168 -2.86272,-8.83301 V 74.375 c 5.3337,0 9.64286,-3.770509 9.64286,-8.4375 0,-4.666992 -4.30916,-8.4375 -9.64286,-8.4375 z m -28.92857,51.89063 V 74.375 h 19.28572 v 35.01563 c 0,6.24902 1.98884,12.36621 5.72545,17.69238 l 10.3962,14.79199 H 99.235493 L 109.6317,127.08301 c 3.73661,-5.32617 5.72544,-11.44336 5.72544,-17.69238 z"
     id="path2357"
     style="stroke-width:0.281878" />
</svg>
