<?xml version="1.0" encoding="UTF-8" standalone="no"?>
<svg
   viewBox="0 0 400 250"
   version="1.1"
   id="svg4"
   sodipodi:docname="laptop.svg"
   width="400"
   height="250"
   inkscape:version="1.2.2 (732a01da63, 2022-12-09)"
   xmlns:inkscape="http://www.inkscape.org/namespaces/inkscape"
   xmlns:sodipodi="http://sodipodi.sourceforge.net/DTD/sodipodi-0.dtd"
   xmlns="http://www.w3.org/2000/svg"
   xmlns:svg="http://www.w3.org/2000/svg">
  <defs
     id="defs8" />
  <sodipodi:namedview
     id="namedview6"
     pagecolor="#ffffff"
     bordercolor="#666666"
     borderopacity="1.0"
     inkscape:showpageshadow="2"
     inkscape:pageopacity="0.0"
     inkscape:pagecheckerboard="0"
     inkscape:deskcolor="#d1d1d1"
     showgrid="false"
     inkscape:zoom="0.4609375"
     inkscape:cx="241.89831"
     inkscape:cy="256"
     inkscape:window-width="1920"
     inkscape:window-height="974"
     inkscape:window-x="-11"
     inkscape:window-y="-11"
     inkscape:window-maximized="1"
     inkscape:current-layer="svg4" />
  <rect
     style="fill:#728798;fill-opacity:1;stroke:none;stroke-width:1.31528"
     id="rect1623"
     width="400"
     height="250"
     x="0"
     y="0"
     ry="32.542374" />
  <!--! Font Awesome Pro 6.2.1 by @fontawesome - https://fontawesome.com License - https://fontawesome.com/license (Commercial License) Copyright 2022 Fonticons, Inc. -->
  <path
     d="m 100,62.5 c 0,-13.789063 11.21094,-25 25,-25 h 150 c 13.78906,0 25,11.210937 25,25 v 100 H 275 V 62.5 H 125 v 100 h -25 z m -25,120 c 0,-4.14063 3.35937,-7.5 7.5,-7.5 h 235 c 4.14063,0 7.5,3.35937 7.5,7.5 0,16.5625 -13.4375,30 -30,30 H 105 c -16.5625,0 -30,-13.4375 -30,-30 z m 109.76563,-75.85937 -12.10939,12.10937 12.10939,12.10937 c 3.67187,3.67187 3.67187,9.60937 0,13.24219 -3.67189,3.63281 -9.60939,3.67188 -13.24219,0 l -18.75,-18.75 c -3.67188,-3.67187 -3.67188,-9.60937 0,-13.24219 l 18.75,-18.75 c 3.67187,-3.67187 9.60937,-3.67187 13.24219,0 3.63281,3.67189 3.67187,9.60939 0,13.24219 z m 43.75,-13.28126 18.75,18.75 c 3.67187,3.67189 3.67187,9.60939 0,13.24219 l -18.75,18.75 c -3.67189,3.67188 -9.60939,3.67188 -13.24219,0 -3.63281,-3.67187 -3.67188,-9.60937 0,-13.24219 L 227.38281,118.75 215.27344,106.64063 c -3.67188,-3.67187 -3.67188,-9.60937 0,-13.24219 3.67187,-3.63281 9.60937,-3.67188 13.24219,0 z"
     id="path4697"
     style="stroke-width:0.390626" />
</svg>
