<?xml version="1.0" encoding="UTF-8" standalone="no"?>
<svg
   viewBox="0 0 400 250"
   version="1.1"
   id="svg4"
   sodipodi:docname="laptop.svg"
   width="400"
   height="250"
   inkscape:version="1.2.2 (732a01da63, 2022-12-09)"
   xmlns:inkscape="http://www.inkscape.org/namespaces/inkscape"
   xmlns:sodipodi="http://sodipodi.sourceforge.net/DTD/sodipodi-0.dtd"
   xmlns="http://www.w3.org/2000/svg"
   xmlns:svg="http://www.w3.org/2000/svg">
  <defs
     id="defs8" />
  <sodipodi:namedview
     id="namedview6"
     pagecolor="#ffffff"
     bordercolor="#666666"
     borderopacity="1.0"
     inkscape:showpageshadow="2"
     inkscape:pageopacity="0.0"
     inkscape:pagecheckerboard="0"
     inkscape:deskcolor="#d1d1d1"
     showgrid="false"
     inkscape:zoom="0.4609375"
     inkscape:cx="241.89831"
     inkscape:cy="256"
     inkscape:window-width="1920"
     inkscape:window-height="974"
     inkscape:window-x="-11"
     inkscape:window-y="-11"
     inkscape:window-maximized="1"
     inkscape:current-layer="svg4" />
  <rect
     style="fill:#728798;fill-opacity:1;stroke:none;stroke-width:1.31528"
     id="rect1623"
     width="400"
     height="250"
     x="0"
     y="0"
     ry="32.542374" />
  <!--! Font Awesome Pro 6.2.1 by @fontawesome - https://fontawesome.com License - https://fontawesome.com/license (Commercial License) Copyright 2022 Fonticons, Inc. -->
  <path
     d="m 130,81.25 c 0,-9.652344 7.84766,-17.5 17.5,-17.5 h 105 c 9.65234,0 17.5,7.847656 17.5,17.5 v 70 h -17.5 v -70 h -105 v 70 H 130 Z m -17.5,84 c 0,-2.89844 2.35156,-5.25 5.25,-5.25 h 164.5 c 2.89844,0 5.25,2.35156 5.25,5.25 0,11.59375 -9.40625,21 -21,21 h -133 c -11.59375,0 -21,-9.40625 -21,-21 z m 76.83594,-53.10156 -8.47657,8.47656 8.47657,8.47656 c 2.57031,2.57031 2.57031,6.72656 0,9.26953 -2.57032,2.54297 -6.72657,2.57032 -9.26953,0 l -13.125,-13.125 c -2.57032,-2.57031 -2.57032,-6.72656 0,-9.26953 l 13.125,-13.125 c 2.57031,-2.57031 6.72656,-2.57031 9.26953,0 2.54297,2.57032 2.57031,6.72657 0,9.26953 z m 30.625,-9.29688 13.125,13.125 c 2.57031,2.57032 2.57031,6.72657 0,9.26953 l -13.125,13.125 c -2.57032,2.57032 -6.72657,2.57032 -9.26953,0 -2.54297,-2.57031 -2.57032,-6.72656 0,-9.26953 l 8.47656,-8.47656 -8.47656,-8.47656 c -2.57032,-2.57031 -2.57032,-6.72656 0,-9.26953 2.57031,-2.54297 6.72656,-2.57032 9.26953,0 z"
     id="path4697"
     style="stroke-width:0.273438" />
</svg>
