<?xml version="1.0" encoding="UTF-8" standalone="no"?>
<svg
   viewBox="0 0 250 250"
   version="1.1"
   id="svg4"
   sodipodi:docname="laptop.svg"
   width="250"
   height="250"
   inkscape:version="1.2.2 (732a01da63, 2022-12-09)"
   xmlns:inkscape="http://www.inkscape.org/namespaces/inkscape"
   xmlns:sodipodi="http://sodipodi.sourceforge.net/DTD/sodipodi-0.dtd"
   xmlns="http://www.w3.org/2000/svg"
   xmlns:svg="http://www.w3.org/2000/svg">
  <defs
     id="defs8" />
  <sodipodi:namedview
     id="namedview6"
     pagecolor="#ffffff"
     bordercolor="#666666"
     borderopacity="1.0"
     inkscape:showpageshadow="2"
     inkscape:pageopacity="0.0"
     inkscape:pagecheckerboard="0"
     inkscape:deskcolor="#d1d1d1"
     showgrid="false"
     inkscape:zoom="0.4609375"
     inkscape:cx="241.89831"
     inkscape:cy="256"
     inkscape:window-width="1920"
     inkscape:window-height="974"
     inkscape:window-x="-11"
     inkscape:window-y="-11"
     inkscape:window-maximized="1"
     inkscape:current-layer="svg4" />
  <rect
     style="fill:#728798;fill-opacity:1;stroke:none;stroke-width:0.935838"
     id="rect1623"
     width="225"
     height="225"
     x="12.5"
     y="12.5"
     ry="112.5" />
  <!--! Font Awesome Pro 6.2.1 by @fontawesome - https://fontawesome.com License - https://fontawesome.com/license (Commercial License) Copyright 2022 Fonticons, Inc. -->
  <path
     d="m 60.2,84.5 c 0,-8.935313 7.2647,-16.2 16.2,-16.2 h 97.2 c 8.93531,0 16.2,7.264687 16.2,16.2 v 64.8 H 173.6 V 84.5 H 76.4 v 64.8 H 60.2 Z M 44,162.26 c 0,-2.68313 2.17688,-4.86 4.86,-4.86 h 152.28 c 2.68313,0 4.86,2.17687 4.86,4.86 0,10.7325 -8.7075,19.44 -19.44,19.44 H 63.44 C 52.7075,181.7 44,172.9925 44,162.26 Z m 71.12813,-49.15687 -7.84689,7.84687 7.84689,7.84687 c 2.37937,2.37939 2.37937,6.22689 0,8.58093 -2.37939,2.35407 -6.22689,2.37939 -8.58094,0 l -12.15,-12.15 c -2.37939,-2.37937 -2.37939,-6.22687 0,-8.58093 l 12.15,-12.15 c 2.37938,-2.37937 6.22688,-2.37937 8.58094,0 2.35406,2.37939 2.37937,6.22689 0,8.58093 z m 28.35,-8.60626 12.15,12.15 c 2.37937,2.37939 2.37937,6.22689 0,8.58094 l -12.15,12.15 c -2.37939,2.37939 -6.22689,2.37939 -8.58094,0 -2.35406,-2.37938 -2.37939,-6.22688 0,-8.58094 l 7.84688,-7.84687 -7.84688,-7.84687 c -2.37939,-2.37937 -2.37939,-6.22687 0,-8.58094 2.37938,-2.35406 6.22688,-2.37938 8.58094,0 z"
     id="path4697"
     style="stroke-width:0.253126" />
</svg>
